<svg id="Layer_1" data-name="Layer 1" xmlns="http://www.w3.org/2000/svg" viewBox="0 0 486.38 125.57"><defs><style>.cls-1{fill:#004289;}.cls-2{fill:#e40520;}</style></defs><title>vinci_logo</title><rect class="cls-1" x="306.52" y="43.81" width="16.13" height="44.91"/><path class="cls-1" d="M414.08,142.37v39.4s14.35,3.56,36.82,3.56c22.31,0,36.82-3.54,36.82-3.54V168.4a212.2,212.2,0,0,1-37,3.06,159.28,159.28,0,0,1-21-1.59c0-3.23,0-12.34,0-15.6a167.53,167.53,0,0,1,21.1-1.6,219.38,219.38,0,0,1,36.82,3.17V142.37s-14.29-3.56-36.82-3.56c-22.7,0-36.82,3.57-36.82,3.57" transform="translate(-198.68 -95.74)"/><path class="cls-1" d="M380.62,184.45a188,188,0,0,0-28.8-18.31c-4.78-2.48-8.82-4.13-12.57-5.65v24H323.65V139.62A116.74,116.74,0,0,1,351.85,150a235.11,235.11,0,0,1,28.78,17.5V139.54h15.66v44.91H380.62Z" transform="translate(-198.68 -95.74)"/><rect class="cls-1" x="90.79" y="43.81" width="16.13" height="44.91"/><path class="cls-1" d="M278.71,149.71l-40,35.94-40-36,12-10.9s24.45,23.54,28.07,26.9c3.61-3.36,28.07-26.91,28.07-26.91Z" transform="translate(-198.68 -95.74)"/><path class="cls-2" d="M557.71,139.57h22.44a21.16,21.16,0,0,0,15.23-6.18c1.9-2,6.31-7,6.31-12.75,0,0,0-18.66,0-18.66a6.25,6.25,0,0,1,6.24-6.25h24.33a6.25,6.25,0,0,1,6.26,6.26v24.34a6.25,6.25,0,0,1-6.26,6.26H613.6c-5.79,0-10.75,4.41-12.73,6.31a21.15,21.15,0,0,0-6.17,15.23v22.44h-37v-37" transform="translate(-198.68 -95.74)"/><path class="cls-2" d="M685.06,159.25a21.45,21.45,0,0,0-6.22-15.13,21.15,21.15,0,0,0-15.14-6.22,21.84,21.84,0,0,0-21.85,21.72c0,2.16.94,6.25,0.94,8A16.84,16.84,0,0,1,626,184.45h-18a6.25,6.25,0,0,0-6.24,6.26V215a6.25,6.25,0,0,0,6.24,6.26h24.33a6.25,6.25,0,0,0,6.25-6.26V197a16.84,16.84,0,0,1,16.85-16.84c1.74,0,5.83.94,8,.94a21.85,21.85,0,0,0,21.72-21.86" transform="translate(-198.68 -95.74)"/><polygon class="cls-1" points="226.91 124.52 226.91 105.29 238.56 105.29 238.56 107.66 231.33 107.66 231.33 113.48 237.77 113.48 237.77 115.83 231.33 115.83 231.33 122.14 238.56 122.14 238.56 124.52 226.91 124.52"/><path class="cls-1" d="M455.41,220.25l-9.08-12.41a23.37,23.37,0,0,1-1.39-2.15h-0.07a20.23,20.23,0,0,1,.14,2.24v12.32h-3.72V201h4.17L454,212.71a21.93,21.93,0,0,1,1.29,2h0.07a20.39,20.39,0,0,1-.1-2V201H459v19.23h-3.55Z" transform="translate(-198.68 -95.74)"/><polygon class="cls-1" points="265.21 124.52 265.21 105.29 276.87 105.29 276.87 107.66 269.63 107.66 269.63 113.48 276.07 113.48 276.07 115.83 269.63 115.83 269.63 122.14 276.87 122.14 276.87 124.52 265.21 124.52"/><path class="cls-1" d="M490.72,206.75c0,2.57-1.67,4.05-5.08,4.05a7.53,7.53,0,0,1-1.64-.14v-7.55a6.38,6.38,0,0,1,2.19-.33c3.24,0,4.52,1.28,4.52,4m5,13.5-7.13-8.52v-0.06c3.79-.2,6.4-2.18,6.4-5.09,0-3.6-2.89-5.84-8.84-5.84a17.91,17.91,0,0,0-6.54,1.09v18.42H484v-8.72h0.07l6.79,8.72h4.91Z" transform="translate(-198.68 -95.74)"/><path class="cls-1" d="M508.77,220.53c-6.4,0-10.44-3.55-10.44-10,0-6.12,4.35-9.78,10.54-9.78a14,14,0,0,1,6,1.06L513.54,204a9.8,9.8,0,0,0-4.14-.73c-4.14,0-6.58,2.29-6.58,7.43,0,4.86,2.44,7.38,5.78,7.38a6.13,6.13,0,0,0,2.4-.36v-6.32h-3.44v-2.18h7.62v10.23a14.24,14.24,0,0,1-6.4,1.09" transform="translate(-198.68 -95.74)"/><rect class="cls-1" x="321.34" y="105.29" width="4.45" height="19.23"/><polygon class="cls-1" points="330.79 124.52 330.79 105.29 342.45 105.29 342.45 107.66 335.21 107.66 335.21 113.48 341.65 113.48 341.65 115.83 335.21 115.83 335.21 122.14 342.45 122.14 342.45 124.52 330.79 124.52"/><path class="cls-1" d="M549.9,220.53a12.56,12.56,0,0,1-5.91-1.09l1.08-2.49a8.57,8.57,0,0,0,4,.9c2.36,0,3.82-1.17,3.82-3,0-1.45-1-2.35-3.72-3.24-3.9-1.31-4.95-3.38-4.95-5.26,0-3,2.75-5.64,7.17-5.64a10.9,10.9,0,0,1,5.26,1.09l-1,2.18a8.4,8.4,0,0,0-3.69-.87c-2.19,0-3.44,1.09-3.44,2.8s1.53,2.46,3.62,3.16c4.7,1.59,5.4,3.72,5.4,5.56,0,3.41-3.2,5.87-7.66,5.87" transform="translate(-198.68 -95.74)"/></svg>